<svg id="visual" viewBox="0 0 900 600" width="900" height="600" xmlns="http://www.w3.org/2000/svg" xmlns:xlink="http://www.w3.org/1999/xlink" version="1.1"><path d="M0 61L25 74C50 87 100 113 150 116C200 119 250 99 300 89C350 79 400 79 450 80C500 81 550 83 600 91C650 99 700 113 750 116C800 119 850 111 875 107L900 103L900 0L875 0C850 0 800 0 750 0C700 0 650 0 600 0C550 0 500 0 450 0C400 0 350 0 300 0C250 0 200 0 150 0C100 0 50 0 25 0L0 0Z" fill="#68a3b8"></path><path d="M0 145L25 156C50 167 100 189 150 188C200 187 250 163 300 149C350 135 400 131 450 136C500 141 550 155 600 167C650 179 700 189 750 185C800 181 850 163 875 154L900 145L900 101L875 105C850 109 800 117 750 114C700 111 650 97 600 89C550 81 500 79 450 78C400 77 350 77 300 87C250 97 200 117 150 114C100 111 50 85 25 72L0 59Z" fill="#54889f"></path><path d="M0 223L25 232C50 241 100 259 150 259C200 259 250 241 300 227C350 213 400 203 450 210C500 217 550 241 600 256C650 271 700 277 750 271C800 265 850 247 875 238L900 229L900 143L875 152C850 161 800 179 750 183C700 187 650 177 600 165C550 153 500 139 450 134C400 129 350 133 300 147C250 161 200 185 150 186C100 187 50 165 25 154L0 143Z" fill="#426e86"></path><path d="M0 295L25 300C50 305 100 315 150 312C200 309 250 293 300 279C350 265 400 253 450 258C500 263 550 285 600 299C650 313 700 319 750 317C800 315 850 305 875 300L900 295L900 227L875 236C850 245 800 263 750 269C700 275 650 269 600 254C550 239 500 215 450 208C400 201 350 211 300 225C250 239 200 257 150 257C100 257 50 239 25 230L0 221Z" fill="#31556e"></path><path d="M0 421L25 437C50 453 100 485 150 494C200 503 250 489 300 476C350 463 400 451 450 439C500 427 550 415 600 425C650 435 700 467 750 472C800 477 850 455 875 444L900 433L900 293L875 298C850 303 800 313 750 315C700 317 650 311 600 297C550 283 500 261 450 256C400 251 350 263 300 277C250 291 200 307 150 310C100 313 50 303 25 298L0 293Z" fill="#203d55"></path><path d="M0 601L25 601C50 601 100 601 150 601C200 601 250 601 300 601C350 601 400 601 450 601C500 601 550 601 600 601C650 601 700 601 750 601C800 601 850 601 875 601L900 601L900 431L875 442C850 453 800 475 750 470C700 465 650 433 600 423C550 413 500 425 450 437C400 449 350 461 300 474C250 487 200 501 150 492C100 483 50 451 25 435L0 419Z" fill="#10273d"></path></svg>